<?xml version="1.0" encoding="UTF-8"?>
<svg id="Camada_2" data-name="Camada 2" xmlns="http://www.w3.org/2000/svg" xmlns:xlink="http://www.w3.org/1999/xlink" viewBox="0 0 1800 1800">
  <defs>
    <style>
      .cls-1 {
        fill: url(#Gradiente_sem_nome_15);
        fill-rule: evenodd;
      }

      .cls-2 {
        fill: #f4f4f4;
      }
    </style>
    <linearGradient id="Gradiente_sem_nome_15" data-name="Gradiente sem nome 15" x1="1378.08" y1="1764.18" x2="408.26" y2="1764.18" gradientTransform="translate(0 2668) scale(1 -1)" gradientUnits="userSpaceOnUse">
      <stop offset="0" stop-color="#de444a"/>
      <stop offset="1" stop-color="#f88c00"/>
    </linearGradient>
  </defs>
  <g id="Layer_1" data-name="Layer 1">
    <g>
      <g>
        <path class="cls-2" d="M1636.3,1077.24l3.69-27.77,38.38-10.4,9.4-70.72-34.32-20.15,3.58-26.92,142.97,85.68-3.24,24.36-160.46,45.93ZM1766.8,1014.56l-56.85-33.53-6.84,51.49,63.69-17.96Z"/>
        <path class="cls-2" d="M1603.42,1205.4c-1.23-5.22-1.99-10.66-2.3-16.32-.31-5.66-.04-11.54.81-17.64.85-6.1,2.37-12.27,4.56-18.51,3.92-11.12,9.35-20.57,16.31-28.35,6.96-7.78,14.88-13.75,23.77-17.89,8.89-4.14,18.47-6.41,28.73-6.81,10.26-.4,20.64,1.23,31.16,4.88,10.11,3.51,19.04,8.62,26.79,15.35,7.75,6.72,13.86,14.51,18.33,23.37,4.47,8.86,7.1,18.48,7.88,28.87.79,10.39-.71,20.95-4.48,31.66-2.2,6.24-4.64,11.75-7.31,16.52-2.68,4.78-5.6,9.05-8.77,12.82-3.17,3.77-6.63,7.17-10.38,10.21-3.75,3.03-7.84,5.84-12.27,8.41l-13.47-22.48c3.28-1.91,6.37-3.95,9.29-6.14,2.91-2.18,5.57-4.61,7.97-7.28,2.4-2.67,4.63-5.74,6.69-9.21,2.06-3.47,3.88-7.44,5.46-11.92,2.29-6.51,3.09-13.04,2.41-19.6-.69-6.56-2.63-12.71-5.83-18.46-3.2-5.75-7.46-10.88-12.78-15.39-5.32-4.51-11.48-7.98-18.46-10.4-7.39-2.57-14.64-3.79-21.75-3.67-7.11.12-13.71,1.52-19.8,4.2-6.09,2.68-11.47,6.52-16.15,11.52-4.68,5-8.3,11.16-10.88,18.48-2.39,6.78-3.62,13.47-3.71,20.06-.09,6.59.75,12.62,2.52,18.11l26.99,9.37,12.82-36.41,21.92,7.61-21.35,60.62-60.24-20.91c-1.76-4.57-3.26-9.46-4.49-14.68Z"/>
        <path class="cls-2" d="M1627.2,1398.25l43.93-73.35-33.58-19.83-38.94,65.01-20.71-12.23,38.94-65.01-34.89-20.6-44.49,74.27-20.71-12.23,58.02-96.87,130.6,77.1-57.47,95.95-20.71-12.23ZM1696.34,1354.07l10.43-17.41,14.37,37.57-12.43,20.74-40.11,5.4,10.65-17.78,21.04-6.88-3.96-21.64Z"/>
        <path class="cls-2" d="M1543.91,1533.76l-17.78,19.49-112.62-101.26,14.98-16.42,136.25,10.52-80.12-72.04,17.78-19.49,112.62,101.26-16.58,18.17-132.4-10.24,77.87,70.02Z"/>
        <path class="cls-2" d="M1299.99,1552.99c1.55-5.1,3.62-10.05,6.2-14.83,2.59-4.79,5.89-9.38,9.92-13.78,4.03-4.4,8.91-8.67,14.66-12.79,9.03-6.49,18.54-10.84,28.53-13.05,10-2.22,19.83-2.51,29.52-.86,9.68,1.64,18.91,5.17,27.67,10.58,8.76,5.41,16.37,12.53,22.82,21.38,6.36,8.73,10.79,18.05,13.28,27.96,2.5,9.91,3.03,19.77,1.6,29.58-1.43,9.8-4.8,19.14-10.12,28.02-5.32,8.88-12.67,16.68-22.05,23.42-5.63,4.04-11.09,7.26-16.4,9.66-5.31,2.39-10.51,4.14-15.61,5.23-5.1,1.09-10.14,1.65-15.12,1.68-4.98.03-9.95-.3-14.92-.98l2.31-25.87c8.23,1,16.12.92,23.67-.25,7.55-1.17,14.84-4.28,21.87-9.33,5.86-4.21,10.46-9.24,13.78-15.09,3.33-5.85,5.39-12.03,6.18-18.54.79-6.51.28-13.1-1.55-19.77-1.82-6.67-4.94-13.03-9.36-19.08-4.41-6.05-9.54-11.01-15.4-14.87-5.85-3.87-12.04-6.47-18.56-7.81-6.52-1.35-13.09-1.37-19.73-.05-6.64,1.31-12.88,4.07-18.75,8.28-7.5,5.39-12.91,11.45-16.22,18.18-3.31,6.72-5.83,14.43-7.54,23.11l-24.07-3.98c.7-5.65,1.83-11.03,3.38-16.13Z"/>
        <path class="cls-2" d="M1306.4,1704.59l-70.42-133.67,23.47-12.18,70.42,133.67-23.47,12.18Z"/>
        <path class="cls-2" d="M1067.54,1635.14l26.7-9.06,26.45,29.51,67.99-23.07,2.92-39.48,25.88-8.78-13.77,165.23-23.42,7.95-112.75-122.29ZM1182.09,1723.35l4.99-65.46-49.5,16.8,44.51,48.66Z"/>
        <path class="cls-2" d="M857.43,1697.26c3.61-9.38,8.9-17.56,15.84-24.53,6.95-6.97,15.32-12.55,25.1-16.73,9.79-4.18,20.61-6.46,32.47-6.83l56.63-1.75,4.73,150.77-56.63,1.75c-11.86.37-22.8-1.2-32.83-4.7-10.02-3.5-18.73-8.51-26.1-15.04-7.37-6.53-13.15-14.33-17.35-23.4-4.19-9.07-6.46-18.92-6.79-29.54-.33-10.63,1.31-20.63,4.92-30.01ZM884.94,1746.51c2.74,6.2,6.46,11.53,11.17,16,4.71,4.47,10.37,7.91,16.98,10.3,6.61,2.39,13.9,3.47,21.88,3.22l30.02-.93-3.23-102.96-30.02.93c-7.97.25-15.18,1.73-21.63,4.46-6.45,2.73-11.88,6.43-16.31,11.11-4.42,4.68-7.81,10.2-10.15,16.55-2.34,6.35-3.39,13.28-3.16,20.78.24,7.5,1.72,14.34,4.46,20.54Z"/>
        <path class="cls-2" d="M692.87,1754.91l84.77,14.11,6.46-38.26-75.14-12.51,3.98-23.59,75.14,12.51,6.71-39.74-85.84-14.29,3.98-23.59,111.96,18.64-25.12,148.77-110.89-18.46,3.98-23.59Z"/>
        <path class="cls-2" d="M466.87,1693.8l-26.06-12.33,122.86-110.17,21.16,10.01-8.82,164.13-26.65-12.61,8.9-124.22-91.39,85.19Z"/>
        <path class="cls-2" d="M390.69,1460.73l22.83,16.47-9.1,38.45,58.12,41.94,34.21-20.34,22.12,15.96-144.05,83.87-20.02-14.44,35.89-161.92ZM383.92,1604.5l56.8-33.6-42.32-30.53-14.49,64.14Z"/>
        <path class="cls-2" d="M267.09,1548.62l-18.05-19.23,93.53-86.54-54.46-58.02,17.63-16.31,72.51,77.25-111.16,102.85Z"/>
        <path class="cls-2" d="M180.35,1260.48c10.17-1.76,20.17-1.54,30,.64,9.84,2.18,19.11,6.24,27.82,12.18,8.71,5.94,16.18,13.84,22.41,23.69,6.23,9.86,10.18,19.95,11.84,30.28,1.66,10.33,1.34,20.28-.98,29.87-2.31,9.58-6.48,18.54-12.49,26.86-6.01,8.33-13.55,15.31-22.62,20.97-9.07,5.65-18.69,9.36-28.85,11.11-10.17,1.75-20.17,1.54-30-.64-9.84-2.18-19.11-6.24-27.82-12.18-8.71-5.94-16.18-13.83-22.41-23.69-6.23-9.86-10.18-19.95-11.84-30.28-1.66-10.33-1.33-20.29.98-29.87,2.31-9.58,6.48-18.54,12.49-26.86,6.01-8.33,13.55-15.32,22.62-20.97,9.07-5.65,18.69-9.35,28.85-11.11ZM151.03,1309.15c-4.23,5.6-7.22,11.62-8.96,18.05-1.74,6.43-2.15,13.09-1.22,19.97.94,6.88,3.4,13.49,7.4,19.81,4,6.33,8.87,11.39,14.6,15.2,5.74,3.8,11.85,6.31,18.34,7.53,6.49,1.21,13.2,1.15,20.12-.2,6.93-1.35,13.51-3.97,19.76-7.86s11.49-8.64,15.72-14.25c4.23-5.6,7.22-11.62,8.96-18.05,1.74-6.43,2.15-13.08,1.22-19.97-.93-6.88-3.4-13.49-7.4-19.81-4-6.33-8.87-11.39-14.6-15.2-5.74-3.8-11.85-6.31-18.34-7.53-6.49-1.21-13.2-1.15-20.12.2-6.92,1.35-13.51,3.97-19.76,7.86s-11.49,8.65-15.72,14.25Z"/>
        <path class="cls-2" d="M174.25,1117.12l-37.23,52.74,11.31,31.34,49.86-17.74,8.93,24.75-143.04,50.88-22.84-63.29c-2.93-8.11-4.52-15.83-4.78-23.14-.25-7.31.74-13.92,2.99-19.83,2.25-5.91,5.76-11.09,10.53-15.54,4.78-4.45,10.64-7.9,17.58-10.38,6-2.13,11.65-3.19,16.96-3.17,5.31.02,10.31.88,14.99,2.57,4.69,1.69,9.03,4.15,13.04,7.38,4.01,3.23,7.6,7.1,10.77,11.62l40.31-57.6,10.62,29.42ZM62.89,1165.92c-2.18,6.59-1.57,14.57,1.8,23.93l13.15,36.42,48.22-17.15-13.22-36.63c-3.23-8.95-7.99-15.3-14.27-19.03-6.29-3.73-13.13-4.29-20.51-1.66-7.93,2.82-12.99,7.53-15.16,14.12Z"/>
        <path class="cls-2" d="M79.75,949.75c3.9,1.22,7.35,3.1,10.35,5.63,3,2.53,5.48,5.58,7.41,9.15,1.94,3.57,3.11,7.43,3.5,11.58.4,4.15-.02,8.12-1.26,11.92-1.24,3.8-3.09,7.22-5.56,10.26-2.47,3.05-5.5,5.53-9.1,7.46-3.59,1.93-7.48,3.08-11.66,3.48-4.18.39-8.21-.02-12.11-1.24-3.89-1.22-7.34-3.1-10.35-5.63-3-2.53-5.47-5.55-7.4-9.05-1.93-3.5-3.1-7.32-3.49-11.47-.4-4.15.02-8.15,1.25-12.02,1.23-3.87,3.08-7.32,5.55-10.37,2.47-3.05,5.51-5.53,9.1-7.46,3.6-1.92,7.48-3.08,11.66-3.48,4.18-.39,8.22.02,12.11,1.24Z"/>
        <path class="cls-2" d="M165.75,701.39l-4.53,27.65-38.68,9.26-11.53,70.4,33.7,21.16-4.39,26.8L0,766.77l3.97-24.25,161.77-41.13ZM33.41,760.15l55.81,35.21,8.4-51.26-64.2,16.05Z"/>
        <path class="cls-2" d="M202.52,574.28c1.07,5.26,1.67,10.72,1.8,16.38.13,5.67-.31,11.54-1.34,17.61-1.03,6.07-2.74,12.19-5.12,18.36-4.25,11-9.97,20.28-17.16,27.85-7.19,7.57-15.29,13.3-24.31,17.17-9.01,3.88-18.66,5.86-28.92,5.95-10.27.09-20.6-1.85-31-5.81-10-3.81-18.77-9.19-26.31-16.14-7.54-6.95-13.41-14.92-17.61-23.91-4.2-8.99-6.53-18.68-7-29.1-.47-10.41,1.34-20.92,5.44-31.51,2.38-6.17,4.99-11.6,7.81-16.3,2.82-4.69,5.87-8.88,9.15-12.55,3.28-3.67,6.84-6.97,10.68-9.89,3.84-2.92,8.02-5.6,12.52-8.04l12.78,22.87c-3.33,1.81-6.49,3.76-9.47,5.85-2.98,2.1-5.71,4.44-8.18,7.04-2.48,2.6-4.8,5.6-6.97,9-2.17,3.41-4.11,7.32-5.82,11.75-2.49,6.44-3.49,12.95-3,19.52.49,6.57,2.24,12.78,5.26,18.62,3.02,5.85,7.12,11.1,12.31,15.77,5.18,4.67,11.23,8.32,18.13,10.95,7.31,2.79,14.52,4.23,21.63,4.32,7.11.09,13.75-1.11,19.91-3.61,6.17-2.5,11.67-6.17,16.49-11.03,4.83-4.85,8.64-10.9,11.44-18.15,2.59-6.71,4.03-13.35,4.32-19.94.29-6.59-.37-12.64-1.97-18.18l-26.69-10.17-13.92,36.01-21.68-8.26,23.18-59.95,59.58,22.7c1.62,4.62,2.97,9.56,4.04,14.81Z"/>
        <path class="cls-2" d="M114.13,422.92l-10.95,17.09-13.23-37.98,13.05-20.37,40.25-4.21-11.18,17.46-21.24,6.25,3.3,21.75ZM184.57,380.82l-46.13,72.01,32.97,20.82,40.88-63.83,20.33,12.84-40.88,63.83,34.25,21.62,46.71-72.92,20.33,12.84-60.92,95.1-128.21-80.95,60.34-94.19,20.33,12.84Z"/>
        <path class="cls-2" d="M271.89,247.85l18.35-18.95,109.53,104.55-15.46,15.97-135.87-14.54,77.92,74.38-18.35,18.95-109.53-104.55,17.11-17.67,132.03,14.15-75.73-72.29Z"/>
        <path class="cls-2" d="M516.28,235.84c-1.7,5.06-3.92,9.94-6.65,14.64-2.73,4.71-6.17,9.2-10.33,13.48-4.16,4.28-9.17,8.4-15.03,12.35-9.22,6.22-18.86,10.28-28.91,12.2-10.06,1.92-19.9,1.92-29.53-.02-9.63-1.93-18.74-5.73-27.34-11.39-8.6-5.66-15.99-13.01-22.17-22.05-6.1-8.91-10.24-18.36-12.44-28.34-2.2-9.98-2.43-19.85-.71-29.61,1.72-9.76,5.37-18.99,10.96-27.71,5.58-8.71,13.16-16.3,22.74-22.76,5.75-3.87,11.31-6.93,16.69-9.17,5.38-2.23,10.63-3.82,15.76-4.77,5.13-.94,10.18-1.35,15.16-1.24,4.98.12,9.94.59,14.88,1.43l-3.09,25.79c-8.2-1.24-16.09-1.4-23.66-.46-7.58.94-14.96,3.83-22.14,8.68-5.99,4.04-10.73,8.93-14.23,14.68-3.5,5.75-5.75,11.87-6.73,18.35-.99,6.49-.67,13.09.95,19.81,1.62,6.72,4.55,13.17,8.78,19.35,4.23,6.18,9.21,11.29,14.94,15.32,5.73,4.04,11.84,6.82,18.31,8.36,6.47,1.54,13.05,1.75,19.72.64,6.67-1.11,13-3.69,18.99-7.72,7.66-5.16,13.25-11.06,16.76-17.69,3.51-6.62,6.26-14.25,8.23-22.87l23.94,4.7c-.87,5.63-2.16,10.97-3.86,16.02Z"/>
        <path class="cls-2" d="M514.45,84.12l66.34,135.71-23.82,11.48-66.34-135.71,23.82-11.48Z"/>
        <path class="cls-2" d="M751.13,160.69l-26.96,8.26-25.54-30.29-68.66,21.02-4.12,39.37-26.14,8,18.79-164.74,23.65-7.24,108.98,125.62ZM639.31,69.09l-6.98,65.28,49.99-15.3-43.01-49.98Z"/>
        <path class="cls-2" d="M961.78,103.85c-3.76,9.33-9.16,17.43-16.21,24.29-7.05,6.87-15.5,12.32-25.35,16.36-9.85,4.04-20.71,6.15-32.57,6.34l-56.65.91-2.46-150.83L885.19.01c11.86-.19,22.78,1.54,32.76,5.18,9.97,3.65,18.6,8.79,25.87,15.42,7.27,6.64,12.94,14.52,16.99,23.65,4.06,9.13,6.17,19.01,6.35,29.64.17,10.63-1.62,20.61-5.37,29.94ZM935.01,54.19c-2.64-6.23-6.29-11.62-10.93-16.16-4.65-4.54-10.25-8.06-16.82-10.55-6.57-2.49-13.85-3.67-21.82-3.55l-30.03.48,1.68,102.99,30.03-.48c7.98-.13,15.21-1.5,21.7-4.13,6.49-2.63,11.98-6.25,16.47-10.87,4.49-4.62,7.96-10.09,10.4-16.4,2.43-6.32,3.59-13.22,3.47-20.73-.12-7.5-1.51-14.37-4.15-20.6Z"/>
        <path class="cls-2" d="M1129.26,52.08l-84.31-16.64-7.62,38.05,74.73,14.75-4.7,23.46-74.73-14.75-7.91,39.52,85.37,16.85-4.7,23.46-111.34-21.97,29.62-147.95,110.28,21.76-4.7,23.46Z"/>
        <path class="cls-2" d="M1353.29,119.93l25.68,13.1-126.14,106.45-20.85-10.64,13.79-163.79,26.25,13.4-12.66,123.9,93.93-82.42Z"/>
        <path class="cls-2" d="M1422.38,355.13l-22.32-17.14,10.25-38.17-56.83-43.64-34.81,19.31-21.63-16.61,146.51-79.57,19.57,15.03-40.74,160.78ZM1433.47,211.62l-57.79,31.91,41.38,31.77,16.41-63.68Z"/>
        <path class="cls-2" d="M1548.6,270.96l17.47,19.76-96.09,83.73,52.69,59.6-18.11,15.78-70.16-79.36,114.19-99.51Z"/>
        <path class="cls-2" d="M1626.62,561.56c-10.21,1.45-20.21.94-29.97-1.53-9.77-2.48-18.91-6.81-27.44-13-8.52-6.2-15.75-14.31-21.68-24.35-5.93-10.04-9.57-20.24-10.92-30.62-1.35-10.38-.72-20.32,1.88-29.83,2.6-9.51,7.03-18.34,13.29-26.48,6.26-8.14,14.01-14.9,23.25-20.28,9.24-5.38,18.96-8.79,29.18-10.25,10.21-1.45,20.2-.94,29.97,1.53,9.77,2.47,18.91,6.81,27.44,13,8.52,6.19,15.75,14.31,21.68,24.35,5.93,10.04,9.57,20.24,10.92,30.62,1.35,10.37.72,20.32-1.88,29.83-2.6,9.51-7.03,18.34-13.29,26.48-6.26,8.14-14.01,14.91-23.25,20.28-9.24,5.38-18.96,8.79-29.18,10.25ZM1657.4,513.78c4.4-5.48,7.56-11.4,9.5-17.78,1.94-6.37,2.54-13.02,1.82-19.92-.73-6.91-2.99-13.58-6.8-20.02-3.81-6.44-8.52-11.65-14.14-15.63-5.62-3.97-11.66-6.66-18.11-8.07-6.45-1.41-13.16-1.54-20.12-.4-6.96,1.14-13.62,3.56-19.99,7.27-6.37,3.71-11.75,8.3-16.15,13.77-4.4,5.48-7.57,11.4-9.5,17.78-1.94,6.38-2.55,13.01-1.82,19.92.72,6.91,2.99,13.58,6.8,20.02,3.81,6.44,8.52,11.65,14.14,15.63s11.65,6.66,18.1,8.07c6.45,1.4,13.15,1.54,20.12.4,6.96-1.14,13.62-3.56,19.99-7.27,6.37-3.71,11.74-8.3,16.15-13.77Z"/>
        <path class="cls-2" d="M1628.35,705.02l38.81-51.6-10.35-31.66-50.38,16.23-8.18-25.01,144.52-46.57,20.91,63.95c2.68,8.2,4.04,15.95,4.07,23.27.03,7.31-1.16,13.89-3.59,19.73-2.43,5.84-6.1,10.91-11,15.21-4.91,4.3-10.87,7.58-17.89,9.84-6.06,1.95-11.74,2.84-17.04,2.66-5.31-.18-10.28-1.18-14.91-3.01-4.63-1.83-8.9-4.42-12.81-7.77-3.91-3.35-7.38-7.33-10.41-11.94l-42.05,56.37-9.72-29.72ZM1741.15,659.58c2.38-6.52,2.02-14.51-1.08-23.97l-12.03-36.8-48.72,15.7,12.1,37.01c2.96,9.04,7.52,15.53,13.69,19.45,6.17,3.92,12.99,4.68,20.45,2.27,8.02-2.58,13.21-7.14,15.59-13.66Z"/>
        <path class="cls-2" d="M1717.76,875.12c-3.86-1.34-7.25-3.31-10.17-5.93-2.93-2.62-5.31-5.74-7.14-9.37-1.83-3.63-2.88-7.52-3.15-11.67-.27-4.16.27-8.11,1.62-11.87,1.35-3.76,3.31-7.12,5.87-10.09,2.56-2.97,5.67-5.37,9.32-7.18,3.65-1.82,7.57-2.86,11.76-3.13,4.19-.27,8.21.26,12.07,1.6,3.86,1.33,7.25,3.31,10.17,5.93,2.92,2.62,5.3,5.71,7.13,9.26,1.83,3.55,2.87,7.41,3.15,11.57.27,4.16-.27,8.15-1.61,11.98-1.35,3.83-3.3,7.23-5.86,10.2-2.56,2.97-5.67,5.36-9.32,7.18-3.65,1.82-7.57,2.86-11.76,3.13-4.19.27-8.21-.27-12.07-1.6Z"/>
      </g>
      <path class="cls-1" d="M408.26,1225.98h182.3l51.04-115.83h255.22l43.75,115.83h175.01l262.51-644.31h-189.59l-153.13,398.17-153.13-398.17h-196.88l-277.09,644.31ZM699.94,972.6h138.55l-72.92-180.98-65.63,180.98Z"/>
    </g>
  </g>
</svg>