<?xml version="1.0" encoding="UTF-8"?>
<svg id="Camada_2" data-name="Camada 2" xmlns="http://www.w3.org/2000/svg" xmlns:xlink="http://www.w3.org/1999/xlink" viewBox="0 0 2000 559">
  <defs>
    <style>
      .cls-1 {
        fill: url(#Gradiente_sem_nome_15);
      }

      .cls-2 {
        fill: #f4f4f4;
      }

      .cls-3 {
        fill: #f9a801;
      }
    </style>
    <linearGradient id="Gradiente_sem_nome_15" data-name="Gradiente sem nome 15" x1="0" y1="279.5" x2="830.94" y2="279.5" gradientUnits="userSpaceOnUse">
      <stop offset="0" stop-color="#de444a"/>
      <stop offset="1" stop-color="#f88c00"/>
    </linearGradient>
  </defs>
  <g id="Layer_1" data-name="Layer 1">
    <g>
      <g>
        <path class="cls-2" d="M1011.65,126.94h-45.91l-73.16,172.93h50.08l12.27-30.66h66.28l12.52,30.66h51.06l-73.16-172.93ZM968.93,232.18l19.39-48.81,19.15,48.81h-38.54Z"/>
        <path class="cls-2" d="M1165.82,303.31c31.18,0,56.46-11.53,74.63-26.49v-77.27h-79.05v34.83h33.88v20.85c-7.12,4.66-15.96,7.11-27.5,7.11-27.25,0-46.64-19.87-46.64-47.59v-.49c0-26.25,19.15-47.1,43.94-47.1,16.94,0,29.21,5.89,41.49,16.19l27.99-33.61c-18.17-15.7-39.52-25.02-69.72-25.02-53.27,0-92.55,39.25-92.55,89.29v.49c0,52,40.02,88.8,93.53,88.8Z"/>
        <polygon class="cls-2" points="1394.13 259.4 1301.82 259.4 1301.82 232.18 1384.31 232.18 1384.31 194.65 1301.82 194.65 1301.82 168.64 1392.9 168.64 1392.9 128.17 1254.69 128.17 1254.69 299.88 1394.13 299.88 1394.13 259.4"/>
        <polygon class="cls-2" points="1323.92 101.68 1344.54 116.64 1374.49 116.64 1343.06 76.17 1305.26 76.17 1273.83 116.64 1303.29 116.64 1323.92 101.68"/>
        <polygon class="cls-2" points="1453.29 205.68 1526.69 299.88 1568.43 299.88 1568.43 128.17 1521.29 128.17 1521.29 218.93 1450.59 128.17 1406.15 128.17 1406.15 299.88 1453.29 299.88 1453.29 205.68"/>
        <path class="cls-2" d="M1669.32,303.31c38.05,0,59.9-16.44,76.1-38.76l-35.84-25.51c-10.31,12.51-20.87,20.85-38.79,20.85-24.06,0-41-20.11-41-45.87v-.49c0-25.02,16.94-45.38,41-45.38,16.45,0,27.74,7.85,37.56,20.11l35.84-27.72c-15.22-21.1-37.81-35.81-72.91-35.81-52.05,0-90.59,39.25-90.59,89.29v.49c0,51.27,39.52,88.8,88.62,88.8Z"/>
        <rect class="cls-2" x="1754.51" y="128.17" width="47.87" height="171.71"/>
        <path class="cls-2" d="M1870.13,269.22h66.28l12.52,30.66h51.06l-73.16-172.93h-45.91l-73.16,172.93h50.08l12.27-30.66ZM1903.52,183.36l19.15,48.81h-38.54l19.39-48.81Z"/>
        <path class="cls-2" d="M1009.42,342.69c-7.54-7.15-16.53-12.74-26.95-16.78-10.43-4.03-21.89-6.05-34.38-6.05h-55.51v159.77h55.51c12.49,0,23.95-2.05,34.38-6.16,10.43-4.11,19.42-9.74,26.95-16.89,7.54-7.15,13.36-15.63,17.48-25.45,4.11-9.81,6.17-20.35,6.17-31.61s-2.06-21.76-6.17-31.5c-4.11-9.74-9.94-18.18-17.48-25.33ZM1009.65,424.86c-3.12,7.61-7.54,14.27-13.25,19.97-5.71,5.71-12.68,10.16-20.9,13.35-8.22,3.2-17.36,4.79-27.41,4.79h-37.46v-126.45h37.46c10.05,0,19.19,1.64,27.41,4.91,8.22,3.27,15.19,7.76,20.9,13.47,5.71,5.71,10.13,12.44,13.25,20.2,3.12,7.76,4.68,16.06,4.68,24.88s-1.56,17.27-4.68,24.88Z"/>
        <polygon class="cls-2" points="1077.84 407.28 1165.1 407.28 1165.1 390.85 1077.84 390.85 1077.84 336.3 1175.38 336.3 1175.38 319.87 1059.79 319.87 1059.79 479.64 1176.52 479.64 1176.52 463.2 1077.84 463.2 1077.84 407.28"/>
        <polygon class="cls-2" points="1354.23 319.87 1317.91 420.98 1281.59 319.87 1232.02 319.87 1296.9 480.78 1338.02 480.78 1402.89 319.87 1354.23 319.87"/>
        <path class="cls-2" d="M1439.44,318.73l-68.07,160.91h46.6l11.42-28.53h61.68l11.65,28.53h47.51l-68.07-160.91h-42.72ZM1442.41,416.64l18.05-45.42,17.82,45.42h-35.86Z"/>
        <polygon class="cls-2" points="1598.65 319.87 1554.34 319.87 1554.34 479.64 1676.09 479.64 1676.09 440.84 1598.65 440.84 1598.65 319.87"/>
        <path class="cls-2" d="M1755.35,316.67c-49.34,0-86.35,37.2-86.35,83.08v.46c0,45.88,36.55,82.62,85.89,82.62s86.35-37.2,86.35-83.08v-.46c0-45.88-36.55-82.62-85.89-82.62ZM1796.02,400.21c0,23.05-16.22,42.68-40.66,42.68s-40.89-20.09-40.89-43.14v-.46c0-23.05,16.22-42.68,40.43-42.68s41.12,20.09,41.12,43.14v.46Z"/>
        <path class="cls-2" d="M1994.75,374.87v-.46c0-15.75-4.8-28.07-14.16-37.2-10.74-10.96-27.64-17.35-52.08-17.35h-75.61v159.77h44.32v-48.39h19.42l32.21,48.39h51.17l-38.15-55.69c19.87-8.44,32.89-24.65,32.89-49.07ZM1950.2,377.61c0,11.64-8.68,18.94-23.76,18.94h-29.24v-38.34h29.01c14.85,0,23.99,6.39,23.99,18.94v.46Z"/>
      </g>
      <g>
        <g>
          <path class="cls-3" d="M236.26,0h172.52l126.41,351.26L661.6,0h169.34l-225.79,559h-149.11L236.26,0Z"/>
          <polygon class="cls-2" points="369.58 339.54 247.48 339.54 308.91 184.92 236.26 0 0 559 162.33 559 202.12 459.61 416.7 459.61 369.58 339.54"/>
        </g>
        <g>
          <path class="cls-1" d="M236.26,0h172.52l126.41,351.26L661.6,0h169.34l-225.79,559h-149.11L236.26,0Z"/>
          <polygon class="cls-1" points="369.58 339.54 247.48 339.54 308.91 184.92 236.26 0 0 559 162.33 559 202.12 459.61 416.7 459.61 369.58 339.54"/>
        </g>
      </g>
    </g>
  </g>
</svg>